# xmcd
#
# Track frame offsets: 
#        150
#        24005
#        42582
#        58932
#        86957
#        103892
#        130410
#        153395
#        169065
#        195222
#        221317
#        248712
#        267502
#        294402
#        324690
#
# Disc length: 4673 seconds
#
# Revision: 2
# Processed by: cddbd v1.5.2PL0 Copyright (c) Steve Scherf et al.
# Submitted via: ExactAudioCopy v0.95a3
#
DISCID=d9123f0f
DTITLE=Various Artist - Summer Mania '99 [CD 1)
DYEAR=1999
DGENRE=Dance
TTITLE0=Grooveyard and Michel De Hey - Take Me To The Bridge
TTITLE1=Avant Garde - Get Down
TTITLE2=Atlantic Ocean - Trance Atlantis
TTITLE3=Hani - Baby Wants To Ride
TTITLE4=Candy Girls - Bom De Da
TTITLE5=Wagamama - Control Your Body
TTITLE6=Peter G and Clubjock - My Mind
TTITLE7=Perfect Phase - Horny Horns
TTITLE8=Groovelab - Funky
TTITLE9=E-Craig and Relic - Do It
TTITLE10=Mac Zimms - All Over The World
TTITLE11=Le Voix Du Monde - Sunbada
TTITLE12=Summer Madness - Disco Flash
TTITLE13=Klubbheads - Release The Pressure (dub mix)
TTITLE14=Oldschool Nation - Good Old Days
EXTD=
EXTT0=
EXTT1=
EXTT2=
EXTT3=
EXTT4=
EXTT5=
EXTT6=
EXTT7=
EXTT8=
EXTT9=
EXTT10=
EXTT11=
EXTT12=
EXTT13=
EXTT14=
PLAYORDER=
